HIERARCHY
ROOT Hips
{
	OFFSET -0.001795 -0.223333 0.028219
	CHANNELS 6 Xposition Yposition Zposition Zrotation Yrotation Xrotation 
	JOINT LeftUpLeg
	{
		OFFSET 0.069520 -0.091406 -0.006815
		CHANNELS 3 Zrotation Yrotation Xrotation
		JOINT LeftLeg
		{
			OFFSET 0.034277 -0.375199 -0.004496
			CHANNELS 3 Zrotation Yrotation Xrotation
			JOINT LeftFoot
			{
				OFFSET -0.013596 -0.397961 -0.043693
				CHANNELS 3 Zrotation Yrotation Xrotation
				JOINT LeftToe
				{
					OFFSET 0.026358 -0.055791 0.119288
					CHANNELS 3 Zrotation Yrotation Xrotation
					End Site
					{
						OFFSET 0.000000 0.000000 0.000000
					}
				}
			}
		}
	}
	JOINT RightUpLeg
	{
		OFFSET -0.067670 -0.090522 -0.004320
		CHANNELS 3 Zrotation Yrotation Xrotation
		JOINT RightLeg
		{
			OFFSET -0.038290 -0.382569 -0.008850
			CHANNELS 3 Zrotation Yrotation Xrotation
			JOINT RightFoot
			{
				OFFSET 0.015774 -0.398415 -0.042312
				CHANNELS 3 Zrotation Yrotation Xrotation
				JOINT RightToe
				{
					OFFSET -0.025372 -0.048144 0.123348
					CHANNELS 3 Zrotation Yrotation Xrotation
					End Site
					{
						OFFSET 0.000000 0.000000 0.000000
					}
				}
			}
		}
	}
	JOINT Spine
	{
		OFFSET -0.002533 0.108963 -0.026696
		CHANNELS 3 Zrotation Yrotation Xrotation
		JOINT Spine1
		{
			OFFSET 0.005487 0.135180 0.001092
			CHANNELS 3 Zrotation Yrotation Xrotation
			JOINT Spine2
			{
				OFFSET 0.001457 0.052922 0.025425
				CHANNELS 3 Zrotation Yrotation Xrotation
				JOINT Neck
				{
					OFFSET -0.002778 0.213870 -0.042857
					CHANNELS 3 Zrotation Yrotation Xrotation
					JOINT Head
					{
						OFFSET 0.005152 0.064970 0.051349
						CHANNELS 3 Zrotation Yrotation Xrotation
						End Site
						{
							OFFSET 0.000000 0.000000 0.000000
						}
					}
				}
				JOINT LeftShoulder
				{
					OFFSET 0.078845 0.121749 -0.034090
					CHANNELS 3 Zrotation Yrotation Xrotation
					JOINT LeftArm
					{
						OFFSET 0.090977 0.030469 -0.008868
						CHANNELS 3 Zrotation Yrotation Xrotation
						JOINT LeftForeArm
						{
							OFFSET 0.259612 -0.012772 -0.027456
							CHANNELS 3 Zrotation Yrotation Xrotation
							JOINT LeftHand
							{
								OFFSET 0.249234 0.008986 -0.001171
								CHANNELS 3 Zrotation Yrotation Xrotation
								End Site
								{
									OFFSET 0.000000 0.000000 0.000000
								}
							}
						}
					}
				}
				JOINT RightShoulder
				{
					OFFSET -0.081759 0.118833 -0.038615
					CHANNELS 3 Zrotation Yrotation Xrotation
					JOINT RightArm
					{
						OFFSET -0.096012 0.032551 -0.009143
						CHANNELS 3 Zrotation Yrotation Xrotation
						JOINT RightForeArm
						{
							OFFSET -0.253742 -0.013329 -0.021401
							CHANNELS 3 Zrotation Yrotation Xrotation
							JOINT RightHand
							{
								OFFSET -0.255298 0.007772 -0.005559
								CHANNELS 3 Zrotation Yrotation Xrotation
								End Site
								{
									OFFSET 0.000000 0.000000 0.000000
								}
							}
						}
					}
				}
			}
		}
	}
}
MOTION
Frames: 7
Frame Time: 0.050000
0.035418 0.410311 -0.198080 1.480004 -11.107456 -3.174027 10.619726 7.768177 -85.650504 -19.502601 44.954736 129.326928 19.132638 52.961225 -22.272915 0.000000 0.000000 0.000000 -38.172932 -10.818729 -69.683709 22.888871 -48.960895 129.668553 -12.250829 -37.494519 -23.629893 0.000000 0.000000 0.000000 6.069705 -2.920978 80.406437 -12.271063 2.515985 -34.003583 -3.792522 13.644933 30.328343 14.494720 -1.942524 -43.524921 0.000000 0.000000 0.000000 -5.482034 -29.495863 9.833791 -35.751925 -39.658454 4.422832 52.666146 -66.888628 -35.354164 0.000000 0.000000 0.000000 5.471571 10.775317 4.887145 46.053527 46.607393 13.226196 -97.809521 49.477018 -42.827472 0.000000 0.000000 0.000000 
0.034722 0.409590 -0.197443 1.319764 -11.466805 -3.034335 11.349316 8.737233 -85.793276 -19.735764 46.108249 129.946277 20.588660 53.661414 -18.723172 0.000000 0.000000 0.000000 -37.726755 -10.530554 -70.535832 21.105809 -47.322373 131.958675 -11.887144 -34.981488 -22.426306 0.000000 0.000000 0.000000 6.408109 -3.036866 80.630652 -12.261948 2.461650 -34.432476 -3.552896 13.198754 30.618872 15.103841 -2.120990 -44.622396 0.000000 0.000000 0.000000 -5.744238 -29.503551 9.924244 -37.526756 -39.483941 4.777634 51.071578 -65.416967 -32.984406 0.000000 0.000000 0.000000 5.562960 10.609127 4.813097 45.970107 48.074561 13.836461 -95.753613 49.665323 -41.859052 0.000000 0.000000 0.000000 
0.035049 0.409124 -0.196589 1.106719 -11.540690 -2.641412 11.772844 9.173783 -85.735589 -20.566557 47.550777 129.451006 22.526866 55.079950 -15.168807 0.000000 0.000000 0.000000 -38.277310 -10.937032 -71.028704 20.246286 -46.641409 133.039115 -11.185957 -32.289472 -22.992282 0.000000 0.000000 0.000000 7.115031 -3.620354 80.792577 -12.106756 2.427750 -34.469102 -3.919939 12.600781 29.919910 15.587944 -2.306110 -45.030894 0.000000 0.000000 0.000000 -6.169000 -29.409549 10.006944 -39.247232 -39.239111 5.189513 47.913504 -64.689477 -30.062616 0.000000 0.000000 0.000000 6.051826 10.538170 4.863285 46.010095 48.473496 13.956076 -94.786556 50.660198 -42.468308 0.000000 0.000000 0.000000 
0.036220 0.407470 -0.195734 1.135350 -11.559115 -2.300917 12.284247 9.657313 -85.602908 -21.378535 49.540148 129.501709 24.714377 56.394374 -11.299006 0.000000 0.000000 0.000000 -38.552445 -11.231320 -71.660405 19.028299 -45.646828 134.731006 -10.471045 -29.662851 -24.084038 0.000000 0.000000 0.000000 7.545776 -3.998024 81.055260 -12.018884 2.361289 -34.944586 -3.652120 12.127987 29.942632 15.695546 -2.216148 -46.234764 0.000000 0.000000 0.000000 -6.525195 -28.862561 9.908495 -41.775578 -39.306491 5.794295 46.503201 -65.094702 -28.979843 0.000000 0.000000 0.000000 6.308456 9.995583 4.670215 45.260134 49.174558 13.889358 -93.884119 50.375639 -41.809430 0.000000 0.000000 0.000000 
0.037870 0.404765 -0.194853 0.928221 -11.691644 -1.473934 12.459329 9.904793 -85.563120 -22.031945 51.289641 129.632035 26.963501 58.080196 -8.209305 0.000000 0.000000 0.000000 -39.750656 -11.895345 -71.653457 17.649205 -44.198550 136.441424 -9.629728 -25.909325 -24.855072 0.000000 0.000000 0.000000 8.571328 -4.806551 80.868981 -11.875340 2.334326 -34.871771 -3.765738 11.665442 29.652878 15.657743 -2.230141 -46.233228 0.000000 0.000000 0.000000 -7.733122 -28.666077 10.068210 -42.725469 -39.500190 6.188320 46.621529 -65.281948 -28.908096 0.000000 0.000000 0.000000 6.061298 9.913743 4.578793 44.113657 49.098694 13.325702 -90.730143 48.768913 -38.371741 0.000000 0.000000 0.000000 
0.039542 0.401551 -0.194221 0.952356 -11.981260 -0.752445 12.609712 10.210015 -85.317680 -21.997251 52.259422 130.419613 27.589168 58.269810 -7.045776 0.000000 0.000000 0.000000 -40.245500 -12.254322 -72.588270 16.792136 -43.568533 137.662455 -9.248655 -23.962786 -25.662940 0.000000 0.000000 0.000000 9.036998 -5.042537 80.714278 -11.388322 2.261304 -34.696308 -3.897877 11.672597 28.979510 15.261967 -1.878085 -47.190697 0.000000 0.000000 0.000000 -8.072737 -28.585214 10.090551 -45.432808 -40.024119 7.103003 46.228556 -64.651669 -28.137299 0.000000 0.000000 0.000000 6.012635 10.279831 4.738087 43.376457 49.336748 13.191208 -84.472489 45.796053 -32.033768 0.000000 0.000000 0.000000 
0.040884 0.399626 -0.194182 0.964037 -12.228801 -0.441956 12.235530 10.036224 -85.397894 -21.028574 52.216900 132.202708 26.640139 57.217733 -7.699429 0.000000 0.000000 0.000000 -40.537027 -12.393426 -73.001453 16.662909 -43.811522 137.988000 -9.218076 -23.447050 -24.807540 0.000000 0.000000 0.000000 9.607686 -5.418360 81.070990 -11.140611 2.209558 -34.830444 -3.892789 11.385667 28.548282 14.940838 -1.712613 -47.486420 0.000000 0.000000 0.000000 -8.749431 -29.120763 10.431575 -45.213217 -42.034290 7.962539 47.987859 -61.422843 -27.524543 0.000000 0.000000 0.000000 5.464344 11.361420 5.061756 41.974247 49.166567 12.587301 -76.865074 41.109475 -24.635749 0.000000 0.000000 0.000000 
